<?xml version="1.0" encoding="UTF-8" standalone="no"?>
<!DOCTYPE svg PUBLIC "-//W3C//DTD SVG 1.1//EN"
 "http://www.w3.org/Graphics/SVG/1.1/DTD/svg11.dtd">
<!-- Generated by graphviz version 2.26.3 (20100126.1600)
 -->
<!-- Title: G Pages: 1 -->
<svg width="252pt" height="260pt"
 viewBox="0.00 0.00 252.00 260.00" xmlns="http://www.w3.org/2000/svg" xmlns:xlink="http://www.w3.org/1999/xlink">
<g id="graph1" class="graph" transform="scale(1 1) rotate(0) translate(4 256)">
<title>G</title>
<polygon fill="white" stroke="white" points="-4,5 -4,-256 249,-256 249,5 -4,5"/>
<g id="graph2" class="cluster"><title>cluster_FeedWriter</title>
<polyline fill="none" stroke="gray" points="20,-8 224,-8 "/>
<path fill="none" stroke="gray" d="M224,-8C230,-8 236,-14 236,-20"/>
<polyline fill="none" stroke="gray" points="236,-20 236,-232 "/>
<path fill="none" stroke="gray" d="M236,-232C236,-238 230,-244 224,-244"/>
<polyline fill="none" stroke="gray" points="224,-244 20,-244 "/>
<path fill="none" stroke="gray" d="M20,-244C14,-244 8,-238 8,-232"/>
<polyline fill="none" stroke="gray" points="8,-232 8,-20 "/>
<path fill="none" stroke="gray" d="M8,-20C8,-14 14,-8 20,-8"/>
<text text-anchor="middle" x="122" y="-230.1" font-family="Times Roman,serif" font-size="11.00" fill="gray">FeedWriter</text>
</g>
<!-- \\FeedWriter\\ATOM -->
<g id="node2" class="node"><title>\\FeedWriter\\ATOM</title>
<a xlink:href="ATOM.html" xlink:title="ATOM" target="_parent">
<polygon fill="none" stroke="black" points="228,-214 174,-214 174,-178 228,-178 228,-214"/>
<text text-anchor="middle" x="201" y="-193.1" font-family="Courier,monospace" font-size="11.00">ATOM</text>
</a>
</g>
<!-- \\FeedWriter\\Feed -->
<g id="node3" class="node"><title>\\FeedWriter\\Feed</title>
<a xlink:href="Feed.html" xlink:title="«abstract»&lt;br/&gt;Feed" target="_parent">
<polygon fill="none" stroke="black" points="101,-106 17,-106 17,-70 101,-70 101,-106"/>
<text text-anchor="start" x="25" y="-93.4333" font-family="Courier,monospace" font-size="11.00">«abstract»</text>
<text text-anchor="start" x="45" y="-80.2333" font-family="Courier,monospace" font-size="11.00">Feed</text>
</a>
</g>
<!-- \\FeedWriter\\ATOM&#45;&gt;\\FeedWriter\\Feed -->
<g id="edge3" class="edge"><title>\\FeedWriter\\ATOM&#45;&gt;\\FeedWriter\\Feed</title>
<path fill="none" stroke="black" d="M177.232,-177.923C153.58,-159.934 117.128,-132.21 90.9532,-112.302"/>
<polygon fill="none" stroke="black" points="92.9234,-109.404 82.8451,-106.136 88.6858,-114.975 92.9234,-109.404"/>
</g>
<!-- \\FeedWriter\\Item -->
<g id="node4" class="node"><title>\\FeedWriter\\Item</title>
<a xlink:href="Item.html" xlink:title="Item" target="_parent">
<polygon fill="none" stroke="black" points="228,-160 174,-160 174,-124 228,-124 228,-160"/>
<text text-anchor="middle" x="201" y="-139.1" font-family="Courier,monospace" font-size="11.00">Item</text>
</a>
</g>
<!-- \\FeedWriter\\RSS1 -->
<g id="node5" class="node"><title>\\FeedWriter\\RSS1</title>
<a xlink:href="RSS1.html" xlink:title="RSS1" target="_parent">
<polygon fill="none" stroke="black" points="228,-106 174,-106 174,-70 228,-70 228,-106"/>
<text text-anchor="middle" x="201" y="-85.1" font-family="Courier,monospace" font-size="11.00">RSS1</text>
</a>
</g>
<!-- \\FeedWriter\\RSS1&#45;&gt;\\FeedWriter\\Feed -->
<g id="edge5" class="edge"><title>\\FeedWriter\\RSS1&#45;&gt;\\FeedWriter\\Feed</title>
<path fill="none" stroke="black" d="M173.957,-88C156.392,-88 132.91,-88 111.748,-88"/>
<polygon fill="none" stroke="black" points="111.582,-84.5001 101.582,-88 111.582,-91.5001 111.582,-84.5001"/>
</g>
<!-- \\FeedWriter\\RSS2 -->
<g id="node6" class="node"><title>\\FeedWriter\\RSS2</title>
<a xlink:href="RSS2.html" xlink:title="RSS2" target="_parent">
<polygon fill="none" stroke="black" points="228,-52 174,-52 174,-16 228,-16 228,-52"/>
<text text-anchor="middle" x="201" y="-31.1" font-family="Courier,monospace" font-size="11.00">RSS2</text>
</a>
</g>
<!-- \\FeedWriter\\RSS2&#45;&gt;\\FeedWriter\\Feed -->
<g id="edge7" class="edge"><title>\\FeedWriter\\RSS2&#45;&gt;\\FeedWriter\\Feed</title>
<path fill="none" stroke="black" d="M173.957,-44.2841C156.232,-51.0244 132.482,-60.0561 111.171,-68.1601"/>
<polygon fill="none" stroke="black" points="109.685,-64.9808 101.582,-71.8068 112.173,-71.5237 109.685,-64.9808"/>
</g>
</g>
</svg>
