<?xml version="1.0" encoding="UTF-8" standalone="no"?>
<!DOCTYPE svg PUBLIC "-//W3C//DTD SVG 1.1//EN"
 "http://www.w3.org/Graphics/SVG/1.1/DTD/svg11.dtd">
<!-- Generated by graphviz version 2.38.0 (20140413.2041)
 -->
<!-- Title: G Pages: 1 -->
<svg width="250pt" height="258pt"
 viewBox="0.00 0.00 250.00 258.00" xmlns="http://www.w3.org/2000/svg" xmlns:xlink="http://www.w3.org/1999/xlink">
<g id="graph0" class="graph" transform="scale(1 1) rotate(0) translate(4 254)">
<title>G</title>
<polygon fill="white" stroke="none" points="-4,4 -4,-254 246,-254 246,4 -4,4"/>
<g id="clust1" class="cluster"><title>cluster_FeedWriter</title>
<path fill="none" stroke="gray" d="M20,-8C20,-8 222,-8 222,-8 228,-8 234,-14 234,-20 234,-20 234,-230 234,-230 234,-236 228,-242 222,-242 222,-242 20,-242 20,-242 14,-242 8,-236 8,-230 8,-230 8,-20 8,-20 8,-14 14,-8 20,-8"/>
<text text-anchor="middle" x="121" y="-229.2" font-family="Times,serif" font-size="11.00" fill="gray">FeedWriter</text>
</g>
<!-- \\FeedWriter\\ATOM -->
<g id="node1" class="node"><title>\\FeedWriter\\ATOM</title>
<g id="a_node1"><a xlink:href="ATOM.html" xlink:title="ATOM" target="_parent">
<polygon fill="none" stroke="black" points="226,-214 172,-214 172,-178 226,-178 226,-214"/>
<text text-anchor="middle" x="199" y="-193.2" font-family="Courier,monospace" font-size="11.00">ATOM</text>
</a>
</g>
</g>
<!-- \\FeedWriter\\Feed -->
<g id="node2" class="node"><title>\\FeedWriter\\Feed</title>
<g id="a_node2"><a xlink:href="Feed.html" xlink:title="«abstract»&lt;br/&gt;Feed" target="_parent">
<polygon fill="none" stroke="black" points="100,-106 16,-106 16,-70 100,-70 100,-106"/>
<text text-anchor="start" x="24" y="-91.2" font-family="Courier,monospace" font-size="11.00">«abstract»</text>
<text text-anchor="start" x="44" y="-79.2" font-family="Courier,monospace" font-size="11.00">Feed</text>
</a>
</g>
</g>
<!-- \\FeedWriter\\ATOM&#45;&gt;\\FeedWriter\\Feed -->
<g id="edge1" class="edge"><title>\\FeedWriter\\ATOM&#45;&gt;\\FeedWriter\\Feed</title>
<path fill="none" stroke="black" d="M174.735,-177.923C151.582,-159.934 115.9,-132.21 90.2782,-112.302"/>
<polygon fill="none" stroke="black" points="92.3854,-109.507 82.3414,-106.136 88.0905,-115.035 92.3854,-109.507"/>
</g>
<!-- \\FeedWriter\\Item -->
<g id="node3" class="node"><title>\\FeedWriter\\Item</title>
<g id="a_node3"><a xlink:href="Item.html" xlink:title="Item" target="_parent">
<polygon fill="none" stroke="black" points="226,-160 172,-160 172,-124 226,-124 226,-160"/>
<text text-anchor="middle" x="199" y="-139.2" font-family="Courier,monospace" font-size="11.00">Item</text>
</a>
</g>
</g>
<!-- \\FeedWriter\\RSS1 -->
<g id="node4" class="node"><title>\\FeedWriter\\RSS1</title>
<g id="a_node4"><a xlink:href="RSS1.html" xlink:title="RSS1" target="_parent">
<polygon fill="none" stroke="black" points="226,-106 172,-106 172,-70 226,-70 226,-106"/>
<text text-anchor="middle" x="199" y="-85.2" font-family="Courier,monospace" font-size="11.00">RSS1</text>
</a>
</g>
</g>
<!-- \\FeedWriter\\RSS1&#45;&gt;\\FeedWriter\\Feed -->
<g id="edge2" class="edge"><title>\\FeedWriter\\RSS1&#45;&gt;\\FeedWriter\\Feed</title>
<path fill="none" stroke="black" d="M171.855,-88C154.486,-88 131.102,-88 110.125,-88"/>
<polygon fill="none" stroke="black" points="110.057,-84.5001 100.057,-88 110.057,-91.5001 110.057,-84.5001"/>
</g>
<!-- \\FeedWriter\\RSS2 -->
<g id="node5" class="node"><title>\\FeedWriter\\RSS2</title>
<g id="a_node5"><a xlink:href="RSS2.html" xlink:title="RSS2" target="_parent">
<polygon fill="none" stroke="black" points="226,-52 172,-52 172,-16 226,-16 226,-52"/>
<text text-anchor="middle" x="199" y="-31.2" font-family="Courier,monospace" font-size="11.00">RSS2</text>
</a>
</g>
</g>
<!-- \\FeedWriter\\RSS2&#45;&gt;\\FeedWriter\\Feed -->
<g id="edge3" class="edge"><title>\\FeedWriter\\RSS2&#45;&gt;\\FeedWriter\\Feed</title>
<path fill="none" stroke="black" d="M171.855,-44.157C154.328,-50.966 130.677,-60.1544 109.553,-68.3606"/>
<polygon fill="none" stroke="black" points="108.111,-65.1661 100.057,-72.0499 110.646,-71.691 108.111,-65.1661"/>
</g>
</g>
</svg>
