<?xml version="1.0" encoding="UTF-8" standalone="no"?>
<!DOCTYPE svg PUBLIC "-//W3C//DTD SVG 1.1//EN"
 "http://www.w3.org/Graphics/SVG/1.1/DTD/svg11.dtd">
<!-- Generated by graphviz version 2.38.0 (20140413.2041)
 -->
<!-- Title: G Pages: 1 -->
<svg width="428pt" height="384pt"
 viewBox="0.00 0.00 428.09 384.00" xmlns="http://www.w3.org/2000/svg" xmlns:xlink="http://www.w3.org/1999/xlink">
<g id="graph0" class="graph" transform="scale(1 1) rotate(0) translate(4 380)">
<title>G</title>
<polygon fill="white" stroke="none" points="-4,4 -4,-380 424.088,-380 424.088,4 -4,4"/>
<g id="clust1" class="cluster"><title>cluster_Global</title>
<path fill="none" stroke="gray" d="M23.5438,-44C23.5438,-44 400.088,-44 400.088,-44 406.088,-44 412.088,-50 412.088,-56 412.088,-56 412.088,-356 412.088,-356 412.088,-362 406.088,-368 400.088,-368 400.088,-368 23.5438,-368 23.5438,-368 17.5438,-368 11.5438,-362 11.5438,-356 11.5438,-356 11.5438,-56 11.5438,-56 11.5438,-50 17.5438,-44 23.5438,-44"/>
<text text-anchor="middle" x="211.816" y="-355.2" font-family="Times,serif" font-size="11.00" fill="gray">Global</text>
</g>
<g id="clust2" class="cluster"><title>cluster_\FeedWriter</title>
<path fill="none" stroke="gray" d="M31.5438,-52C31.5438,-52 392.088,-52 392.088,-52 398.088,-52 404.088,-58 404.088,-64 404.088,-64 404.088,-328 404.088,-328 404.088,-334 398.088,-340 392.088,-340 392.088,-340 31.5438,-340 31.5438,-340 25.5438,-340 19.5438,-334 19.5438,-328 19.5438,-328 19.5438,-64 19.5438,-64 19.5438,-58 25.5438,-52 31.5438,-52"/>
<text text-anchor="middle" x="211.816" y="-327.2" font-family="Times,serif" font-size="11.00" fill="gray">FeedWriter</text>
</g>
<!-- \\FeedWriter\\ATOM -->
<g id="node1" class="node"><title>\\FeedWriter\\ATOM</title>
<polygon fill="none" stroke="black" points="330.588,-150 276.588,-150 276.588,-114 330.588,-114 330.588,-150"/>
<text text-anchor="middle" x="303.588" y="-129.2" font-family="Courier,monospace" font-size="11.00">ATOM</text>
</g>
<!-- \\FeedWriter\\Feed -->
<g id="node2" class="node"><title>\\FeedWriter\\Feed</title>
<polygon fill="none" stroke="black" points="111.544,-258 27.5438,-258 27.5438,-222 111.544,-222 111.544,-258"/>
<text text-anchor="start" x="35.5438" y="-243.2" font-family="Courier,monospace" font-size="11.00">«abstract»</text>
<text text-anchor="start" x="55.5438" y="-231.2" font-family="Courier,monospace" font-size="11.00">Feed</text>
</g>
<!-- \\FeedWriter\\ATOM&#45;&gt;\\FeedWriter\\Feed -->
<g id="edge1" class="edge"><title>\\FeedWriter\\ATOM&#45;&gt;\\FeedWriter\\Feed</title>
<path fill="none" stroke="black" d="M276.38,-137.981C257.768,-142.647 232.4,-149.866 211.088,-159 173.716,-175.016 133.796,-198.73 106.088,-216.365"/>
<polygon fill="none" stroke="black" points="104.06,-213.508 97.5402,-221.859 107.845,-219.396 104.06,-213.508"/>
</g>
<!-- \\FeedWriter\\InvalidOperationException -->
<g id="node3" class="node"><title>\\FeedWriter\\InvalidOperationException</title>
<polygon fill="none" stroke="black" points="396.088,-96 211.088,-96 211.088,-60 396.088,-60 396.088,-96"/>
<text text-anchor="middle" x="303.588" y="-75.2" font-family="Courier,monospace" font-size="11.00">InvalidOperationException</text>
</g>
<!-- \\LogicException -->
<g id="node7" class="node"><title>\\LogicException</title>
<ellipse fill="none" stroke="black" cx="69.5438" cy="-18" rx="69.5877" ry="18"/>
<text text-anchor="middle" x="69.5438" y="-14.3" font-family="Times,serif" font-size="14.00" fill="gray">\LogicException</text>
</g>
<!-- \\FeedWriter\\InvalidOperationException&#45;&gt;\\LogicException -->
<g id="edge2" class="edge"><title>\\FeedWriter\\InvalidOperationException&#45;&gt;\\LogicException</title>
<path fill="none" stroke="black" d="M232.967,-59.998C199.961,-51.4636 160.957,-41.3783 129.444,-33.2299"/>
<polygon fill="none" stroke="black" points="130.051,-29.7718 119.493,-30.6569 128.298,-36.5489 130.051,-29.7718"/>
</g>
<!-- \\FeedWriter\\Item -->
<g id="node4" class="node"><title>\\FeedWriter\\Item</title>
<polygon fill="none" stroke="black" points="330.588,-204 276.588,-204 276.588,-168 330.588,-168 330.588,-204"/>
<text text-anchor="middle" x="303.588" y="-183.2" font-family="Courier,monospace" font-size="11.00">Item</text>
</g>
<!-- \\FeedWriter\\RSS1 -->
<g id="node5" class="node"><title>\\FeedWriter\\RSS1</title>
<polygon fill="none" stroke="black" points="330.588,-312 276.588,-312 276.588,-276 330.588,-276 330.588,-312"/>
<text text-anchor="middle" x="303.588" y="-291.2" font-family="Courier,monospace" font-size="11.00">RSS1</text>
</g>
<!-- \\FeedWriter\\RSS1&#45;&gt;\\FeedWriter\\Feed -->
<g id="edge3" class="edge"><title>\\FeedWriter\\RSS1&#45;&gt;\\FeedWriter\\Feed</title>
<path fill="none" stroke="black" d="M276.42,-287.91C239.019,-279.207 169.518,-263.033 121.692,-251.903"/>
<polygon fill="none" stroke="black" points="122.367,-248.467 111.834,-249.609 120.781,-255.284 122.367,-248.467"/>
</g>
<!-- \\FeedWriter\\RSS2 -->
<g id="node6" class="node"><title>\\FeedWriter\\RSS2</title>
<polygon fill="none" stroke="black" points="330.588,-258 276.588,-258 276.588,-222 330.588,-222 330.588,-258"/>
<text text-anchor="middle" x="303.588" y="-237.2" font-family="Courier,monospace" font-size="11.00">RSS2</text>
</g>
<!-- \\FeedWriter\\RSS2&#45;&gt;\\FeedWriter\\Feed -->
<g id="edge4" class="edge"><title>\\FeedWriter\\RSS2&#45;&gt;\\FeedWriter\\Feed</title>
<path fill="none" stroke="black" d="M276.42,-240C239.097,-240 169.809,-240 121.992,-240"/>
<polygon fill="none" stroke="black" points="121.834,-236.5 111.834,-240 121.834,-243.5 121.834,-236.5"/>
</g>
</g>
</svg>
